<svg xmlns="http://www.w3.org/2000/svg" version="1.1" xmlns:xlink="http://www.w3.org/1999/xlink" xmlns:svgjs="http://svgjs.dev/svgjs" width="1500" height="689" viewBox="0 0 1500 689"><g transform="matrix(1,0,0,1,-0.9090909090909918,-0.2054512721801416)"><svg viewBox="0 0 396 182" data-background-color="#ffffff" preserveAspectRatio="xMidYMid meet" height="689" width="1500" xmlns="http://www.w3.org/2000/svg" xmlns:xlink="http://www.w3.org/1999/xlink"><g id="tight-bounds" transform="matrix(1,0,0,1,0.2400000000000091,0.054270147368342236)"><svg viewBox="0 0 395.52 181.89145970526332" height="181.89145970526332" width="395.52"><g><svg viewBox="0 0 395.52 181.89145970526332" height="181.89145970526332" width="395.52"><g><svg viewBox="0 0 395.52 181.89145970526332" height="181.89145970526332" width="395.52"><g id="textblocktransform"><svg viewBox="0 0 395.52 181.89145970526332" height="181.89145970526332" width="395.52" id="textblock"><g><svg viewBox="0 0 395.52 181.89145970526332" height="181.89145970526332" width="395.52"><g transform="matrix(1,0,0,1,0,0)"><svg width="395.52" viewBox="1.6 -36.5 81.43444444444445 37.45" height="181.89145970526332" data-palette-color="#010c80"><g class="wordmark-text-0" data-fill-palette-color="primary" id="text-0"><path d="M6.7 0L6.7 0Q4.2 0 2.9-1.55 1.6-3.1 1.6-5.7L1.6-5.7 1.6-29.15Q1.6-31.75 2.58-33.38 3.55-35 5.13-35.75 6.7-36.5 8.55-36.5L8.55-36.5Q11.3-36.5 13.2-35.05 15.1-33.6 16.15-29.95L16.15-29.95 21.55-11.5 22.35-11.5 22.35-30.7Q22.35-33.35 23.7-34.88 25.05-36.4 27.55-36.4L27.55-36.4Q30.15-36.4 31.43-34.88 32.7-33.35 32.7-30.7L32.7-30.7 32.7-8.1Q32.7-3.9 30.85-1.9 29 0.1 25.65 0.1L25.65 0.1Q22.25 0.1 20.35-1.7 18.45-3.5 17.45-7L17.45-7 13.9-19.15Q13.8-19.65 13.53-20.08 13.25-20.5 12.8-20.5L12.8-20.5Q12.25-20.5 12.05-20.08 11.85-19.65 11.85-19.15L11.85-19.15 11.85-5.7Q11.85-3.1 10.55-1.55 9.25 0 6.7 0ZM41.8 0.95L41.8 0.95Q38.85 0.95 37.2-0.63 35.55-2.2 35.55-4.8L35.55-4.8Q35.55-7.45 37.25-9.1 38.95-10.75 41.8-10.75L41.8-10.75Q44.6-10.75 46.27-9.13 47.95-7.5 47.95-4.85L47.95-4.85Q47.95-2.25 46.35-0.65 44.75 0.95 41.8 0.95ZM51.2-26.75L51.2-26.75Q49.75-29.85 50.55-32.33 51.35-34.8 53.6-35.8L53.6-35.8Q55.9-36.8 58.27-35.83 60.65-34.85 61.75-31.75L61.75-31.75Q62.3-30.2 62.55-28.18 62.8-26.15 63.12-24.28 63.45-22.4 64.22-21.18 65-19.95 66.65-19.95L66.65-19.95Q68.3-19.95 69.1-21.18 69.9-22.4 70.22-24.28 70.55-26.15 70.77-28.18 71-30.2 71.55-31.75L71.55-31.75Q72.7-34.85 75.05-35.83 77.4-36.8 79.7-35.8L79.7-35.8Q81.95-34.8 82.75-32.33 83.55-29.85 82.1-26.75L82.1-26.75Q81.35-25.15 80.12-23.73 78.9-22.3 77.45-20.8 76-19.3 74.55-17.48 73.1-15.65 71.9-13.3L71.9-13.3 71.9-4.75Q71.9-2.7 70.4-1.35 68.9 0 66.65 0L66.65 0Q64.45 0 62.92-1.35 61.4-2.7 61.4-4.75L61.4-4.75 61.4-13.3Q60.25-15.65 58.8-17.48 57.35-19.3 55.9-20.8 54.45-22.3 53.2-23.73 51.95-25.15 51.2-26.75Z" fill="#010c80" data-fill-palette-color="primary"></path></g></svg></g></svg></g></svg></g></svg></g></svg></g><defs></defs></svg><rect width="395.52" height="181.89145970526332" fill="none" stroke="none" visibility="hidden"></rect></g></svg></g></svg>