<?xml version="1.0" encoding="UTF-8"?>
<!DOCTYPE svg PUBLIC "-//W3C//DTD SVG 1.1//EN" "http://www.w3.org/Graphics/SVG/1.1/DTD/svg11.dtd">
<svg xmlns="http://www.w3.org/2000/svg" version="1.1" width="2000px" height="1603px" style="shape-rendering:geometricPrecision; text-rendering:geometricPrecision; image-rendering:optimizeQuality; fill-rule:evenodd; clip-rule:evenodd" xmlns:xlink="http://www.w3.org/1999/xlink">
<g><path style="opacity:0.996" fill="#fefffe" d="M 178.5,-0.5 C 198.833,-0.5 219.167,-0.5 239.5,-0.5C 318.447,8.64293 374.947,48.9763 409,120.5C 419.237,142.541 427.904,165.208 435,188.5C 489.971,375.39 544.471,562.39 598.5,749.5C 606.5,749.5 614.5,749.5 622.5,749.5C 622.012,546.484 622.512,343.484 624,140.5C 639.189,42.0029 696.689,-4.16379 796.5,2C 857.213,4.90402 898.713,34.404 921,90.5C 929.218,114.473 933.551,139.14 934,164.5C 934.976,405.174 934.643,645.841 933,886.5C 923.48,1035.33 844.314,1105.83 695.5,1098C 626.694,1094.86 572.194,1065.69 532,1010.5C 512.391,981.616 496.724,950.616 485,917.5C 444.726,782.344 405.059,647.011 366,511.5C 363.005,501.335 357.838,492.501 350.5,485C 343.437,480.72 335.77,479.387 327.5,481C 319.693,483.474 314.526,488.641 312,496.5C 309.901,502.326 308.568,508.326 308,514.5C 307.667,657.833 307.333,801.167 307,944.5C 297.392,1051.78 238.892,1101.95 131.5,1095C 72.1511,1088.97 31.9844,1058.13 11,1002.5C 5.4204,985.752 1.58707,968.752 -0.5,951.5C -0.5,697.167 -0.5,442.833 -0.5,188.5C 2.60506,138.998 20.4384,95.6643 53,58.5C 78.9155,32.6176 109.749,15.1176 145.5,6C 156.574,3.48473 167.574,1.31806 178.5,-0.5 Z"/></g>
<g><path style="opacity:0.995" fill="#fefffe" d="M 1999.5,158.5 C 1999.5,172.833 1999.5,187.167 1999.5,201.5C 1990.83,256.841 1970,307.175 1937,352.5C 1924.05,369.124 1910.71,385.457 1897,401.5C 1865.03,436.468 1832.7,471.135 1800,505.5C 1763.56,545.596 1730.56,588.263 1701,633.5C 1688.83,653.842 1677.16,674.509 1666,695.5C 1665.67,786.5 1665.33,877.5 1665,968.5C 1658.72,1014.92 1635.55,1050.09 1595.5,1074C 1550.85,1097.02 1504.18,1102.02 1455.5,1089C 1416.51,1076.67 1386.35,1053.17 1365,1018.5C 1356.59,1002.87 1351.59,986.203 1350,968.5C 1349.67,877.5 1349.33,786.5 1349,695.5C 1327.34,651.482 1301.67,610.148 1272,571.5C 1233.58,523.759 1192.58,478.092 1149,434.5C 1127.29,410.463 1105.96,386.13 1085,361.5C 1051.64,318.437 1029.31,270.103 1018,216.5C 1007.99,158.873 1020.99,107.206 1057,61.5C 1099.16,17.525 1150.66,-0.975014 1211.5,6C 1270.19,15.5782 1313.69,46.4115 1342,98.5C 1360.13,133.885 1372.46,171.218 1379,210.5C 1386.46,267.687 1395.12,324.687 1405,381.5C 1411.04,410.908 1422.04,438.241 1438,463.5C 1455.74,485.617 1478.91,496.283 1507.5,495.5C 1537.13,496.098 1560.97,484.765 1579,461.5C 1594.54,437.215 1605.21,410.882 1611,382.5C 1620.88,327.778 1628.88,272.778 1635,217.5C 1641.2,176.041 1653.86,136.708 1673,99.5C 1712.75,29.704 1772.92,-1.46267 1853.5,6C 1929.68,19.8417 1977.18,64.3417 1996,139.5C 1997.19,145.972 1998.35,152.306 1999.5,158.5 Z"/></g>
<g><path style="opacity:0.971" fill="#fefffe" d="M 50.5,1602.5 C 41.5,1602.5 32.5,1602.5 23.5,1602.5C 11.126,1597.44 3.12599,1588.44 -0.5,1575.5C -0.5,1504.17 -0.5,1432.83 -0.5,1361.5C 12.8479,1360.3 26.1812,1358.97 39.5,1357.5C 39.3333,1427.5 39.5,1497.5 40,1567.5C 43.784,1571.9 48.1173,1572.56 53,1569.5C 55.9871,1578.45 58.8204,1587.45 61.5,1596.5C 58.2013,1599.26 54.5346,1601.26 50.5,1602.5 Z"/></g>
<g><path style="opacity:0.976" fill="#fefffe" d="M 877.5,1357.5 C 879.327,1387.15 880.161,1417.15 880,1447.5C 895.463,1424.68 915.63,1419.18 940.5,1431C 951.493,1440.15 957.327,1451.99 958,1466.5C 958.5,1510.5 958.667,1554.5 958.5,1598.5C 945.167,1598.5 931.833,1598.5 918.5,1598.5C 918.667,1557.5 918.5,1516.5 918,1475.5C 917.779,1456.48 909.612,1451.65 893.5,1461C 888.137,1466.89 883.637,1473.39 880,1480.5C 879.5,1519.83 879.333,1559.17 879.5,1598.5C 866.167,1598.5 852.833,1598.5 839.5,1598.5C 839.333,1519.83 839.5,1441.17 840,1362.5C 852.608,1360.93 865.108,1359.26 877.5,1357.5 Z"/></g>
<g><path style="opacity:0.972" fill="#fefffe" d="M 801.5,1602.5 C 791.833,1602.5 782.167,1602.5 772.5,1602.5C 756.679,1597.51 746.846,1586.84 743,1570.5C 741.545,1533.2 741.045,1495.86 741.5,1458.5C 734.833,1458.5 728.167,1458.5 721.5,1458.5C 721.5,1448.83 721.5,1439.17 721.5,1429.5C 728.167,1429.5 734.833,1429.5 741.5,1429.5C 741.333,1417.16 741.5,1404.83 742,1392.5C 755.059,1390.31 768.226,1388.64 781.5,1387.5C 781.5,1401.5 781.5,1415.5 781.5,1429.5C 792.167,1429.5 802.833,1429.5 813.5,1429.5C 812.613,1439.1 811.28,1448.6 809.5,1458C 800.173,1458.5 790.839,1458.67 781.5,1458.5C 781.027,1493.55 781.527,1528.55 783,1563.5C 785.099,1568.89 789.099,1571.56 795,1571.5C 800.079,1570.54 804.912,1568.88 809.5,1566.5C 814.973,1574.09 819.973,1582.09 824.5,1590.5C 817.772,1596.36 810.106,1600.36 801.5,1602.5 Z"/></g>
<g><path style="opacity:0.97" fill="#fefffe" d="M 156.5,1602.5 C 145.833,1602.5 135.167,1602.5 124.5,1602.5C 102.174,1596.01 87.0072,1581.68 79,1559.5C 70.7392,1530.27 70.4059,1500.93 78,1471.5C 92.1721,1433.32 119.339,1418.49 159.5,1427C 180.974,1433.81 195.141,1447.97 202,1469.5C 208.117,1494.61 209.117,1519.94 205,1545.5C 199.995,1574.32 183.828,1593.32 156.5,1602.5 Z M 135.5,1455.5 C 145.206,1454.12 152.706,1457.45 158,1465.5C 161.198,1471.09 163.198,1477.09 164,1483.5C 167.849,1508.05 166.849,1532.39 161,1556.5C 154.927,1571.29 144.427,1575.79 129.5,1570C 124.484,1566.31 120.984,1561.48 119,1555.5C 116.894,1548.31 115.561,1540.97 115,1533.5C 114.333,1520.5 114.333,1507.5 115,1494.5C 115.485,1483.89 118.151,1473.89 123,1464.5C 126.299,1460.12 130.466,1457.12 135.5,1455.5 Z"/></g>
<g><path style="opacity:0.969" fill="#fefffe" d="M 450.5,1602.5 C 439.167,1602.5 427.833,1602.5 416.5,1602.5C 389.812,1594.3 373.645,1576.3 368,1548.5C 362.186,1520.04 363.852,1492.04 373,1464.5C 388.705,1430.25 414.871,1418.08 451.5,1428C 470.385,1435.89 482.552,1449.72 488,1469.5C 492.487,1488.28 493.987,1507.28 492.5,1526.5C 463.5,1526.5 434.5,1526.5 405.5,1526.5C 405.19,1539.26 408.023,1551.26 414,1562.5C 423.625,1572.39 435.125,1575.22 448.5,1571C 456.661,1568 464.161,1563.84 471,1558.5C 476,1565.17 481,1571.83 486,1578.5C 486.982,1579.76 487.315,1581.09 487,1582.5C 476.435,1592.2 464.268,1598.86 450.5,1602.5 Z M 424.5,1453.5 C 434.549,1451.9 442.382,1455.23 448,1463.5C 452.648,1475.39 454.481,1487.72 453.5,1500.5C 437.5,1500.5 421.5,1500.5 405.5,1500.5C 405.121,1486.76 407.955,1473.76 414,1461.5C 416.855,1457.79 420.355,1455.12 424.5,1453.5 Z"/></g>
<g><path style="opacity:0.969" fill="#fefffe" d="M 658.5,1602.5 C 647.833,1602.5 637.167,1602.5 626.5,1602.5C 605.63,1596.81 591.13,1583.81 583,1563.5C 571.626,1529.71 571.959,1496.04 584,1462.5C 595.474,1437.4 615.141,1424.73 643,1424.5C 676.129,1425.97 697.129,1442.64 706,1474.5C 712.505,1502.69 711.839,1530.69 704,1558.5C 696.425,1581.24 681.259,1595.91 658.5,1602.5 Z M 638.5,1455.5 C 653.015,1455.17 661.848,1462.17 665,1476.5C 669.255,1500.1 669.588,1523.77 666,1547.5C 664.648,1556.04 660.814,1563.21 654.5,1569C 639.344,1576.06 628.511,1571.89 622,1556.5C 614.667,1528.17 614.667,1499.83 622,1471.5C 624.812,1463.18 630.312,1457.85 638.5,1455.5 Z"/></g>
<g><path style="opacity:0.969" fill="#fefffe" d="M 1071.5,1602.5 C 1060.17,1602.5 1048.83,1602.5 1037.5,1602.5C 1013.75,1596.25 998.246,1581.25 991,1557.5C 983.178,1526.97 983.845,1496.64 993,1466.5C 1008.79,1429.86 1035.96,1417.36 1074.5,1429C 1095.27,1438.99 1107.43,1455.49 1111,1478.5C 1113.56,1494.13 1114.06,1509.79 1112.5,1525.5C 1083.5,1526.17 1054.5,1526.83 1025.5,1527.5C 1026.36,1537.01 1028.2,1546.34 1031,1555.5C 1037.92,1569.38 1049.09,1574.88 1064.5,1572C 1074.59,1569.62 1083.59,1565.12 1091.5,1558.5C 1097.16,1565.67 1102.66,1573 1108,1580.5C 1108.16,1582.39 1107.33,1583.89 1105.5,1585C 1095.35,1593.24 1084.01,1599.08 1071.5,1602.5 Z M 1045.5,1453.5 C 1054.97,1451.93 1062.47,1454.93 1068,1462.5C 1073.1,1474.62 1075.27,1487.29 1074.5,1500.5C 1058.15,1500.83 1041.82,1500.5 1025.5,1499.5C 1026.23,1488.23 1028.4,1477.23 1032,1466.5C 1034.77,1460.23 1039.27,1455.89 1045.5,1453.5 Z"/></g>
<g><path style="opacity:0.963" fill="#fefffe" d="M 1304.5,1602.5 C 1293.17,1602.5 1281.83,1602.5 1270.5,1602.5C 1255.27,1598.97 1242.1,1591.63 1231,1580.5C 1230.33,1579.83 1230.33,1579.17 1231,1578.5C 1237.04,1571.47 1243.37,1564.8 1250,1558.5C 1257.43,1564.25 1265.6,1568.75 1274.5,1572C 1283.96,1574.76 1292.96,1573.76 1301.5,1569C 1312.03,1554.67 1310.03,1542.33 1295.5,1532C 1281.62,1526.73 1268.29,1520.39 1255.5,1513C 1241.27,1502.04 1235.11,1487.54 1237,1469.5C 1239.73,1448.87 1250.9,1435.04 1270.5,1428C 1298.39,1420.31 1323.06,1425.97 1344.5,1445C 1339.5,1452 1334.5,1459 1329.5,1466C 1328.5,1466.67 1327.5,1466.67 1326.5,1466C 1313.3,1454.69 1298.63,1452.03 1282.5,1458C 1275.63,1465.89 1274.79,1474.39 1280,1483.5C 1282.74,1485.79 1285.58,1487.95 1288.5,1490C 1299.62,1494.73 1310.62,1499.73 1321.5,1505C 1339.96,1514.25 1349.3,1529.25 1349.5,1550C 1347.63,1578.71 1332.63,1596.21 1304.5,1602.5 Z"/></g>
<g><path style="opacity:0.974" fill="#fefffe" d="M 1206.5,1425.5 C 1212.18,1425.33 1217.84,1425.5 1223.5,1426C 1225.1,1426.27 1226.6,1426.77 1228,1427.5C 1226.5,1440.17 1224.67,1452.84 1222.5,1465.5C 1208.84,1461.33 1198.01,1465 1190,1476.5C 1185.8,1485.09 1182.8,1494.09 1181,1503.5C 1180.5,1535.16 1180.33,1566.83 1180.5,1598.5C 1167.17,1598.5 1153.83,1598.5 1140.5,1598.5C 1140.5,1542.17 1140.5,1485.83 1140.5,1429.5C 1152.17,1429.5 1163.83,1429.5 1175.5,1429.5C 1176.2,1438.51 1177.03,1447.51 1178,1456.5C 1182.98,1441.7 1192.48,1431.37 1206.5,1425.5 Z"/></g>
<g><path style="opacity:0.968" fill="#fefffe" d="M 218.5,1429.5 C 232.183,1429.17 245.85,1429.5 259.5,1430.5C 268.605,1474.52 277.771,1518.52 287,1562.5C 296.617,1518.25 305.784,1473.91 314.5,1429.5C 327.833,1429.5 341.167,1429.5 354.5,1429.5C 340.161,1485.19 325.661,1540.86 311,1596.5C 303.234,1597.82 295.234,1598.48 287,1598.5C 278.924,1598.49 270.924,1598.16 263,1597.5C 247.849,1541.56 233.016,1485.56 218.5,1429.5 Z"/></g>
</svg>
